<?xml version="1.0" standalone="no"?>
<!DOCTYPE svg PUBLIC "-//W3C//DTD SVG 20010904//EN"
 "http://www.w3.org/TR/2001/REC-SVG-20010904/DTD/svg10.dtd">
<svg version="1.0" xmlns="http://www.w3.org/2000/svg"
 width="628.000000pt" height="628.000000pt" viewBox="0 0 628.000000 628.000000"
 preserveAspectRatio="xMidYMid meet">
<metadata>
Created by potrace 1.11, written by Peter Selinger 2001-2013
</metadata>
<g transform="translate(0.000000,628.000000) scale(0.100000,-0.100000)"
fill="#000000" stroke="none">
<path d="M2665 6184 c108 -55 218 -154 295 -264 25 -35 130 -209 130 -215 0
-2 27 -49 60 -105 33 -56 60 -104 60 -106 0 -2 11 -21 23 -42 19 -29 277 -476
356 -615 10 -18 44 -76 75 -131 32 -54 54 -102 49 -106 -4 -5 -28 -19 -53 -33
-285 -159 -382 -217 -365 -218 128 -3 845 -12 1103 -13 l334 -1 70 125 c38 69
82 148 97 175 15 28 82 147 148 265 143 256 167 298 206 370 17 30 55 97 84
149 29 51 53 96 53 98 0 3 9 18 21 35 12 16 19 31 17 34 -4 3 -107 -52 -178
-96 -8 -5 -68 -41 -134 -80 -110 -66 -119 -70 -132 -53 -7 10 -14 21 -14 25 0
4 -19 38 -42 75 -22 38 -49 82 -58 98 -167 291 -312 529 -332 547 -55 48 -87
68 -143 87 -58 19 -82 20 -920 20 l-860 1 50 -26z"/>
<path d="M2105 6139 c-214 -42 -353 -147 -482 -364 -55 -93 -399 -686 -569
-980 l-23 -40 102 -58 c56 -32 109 -62 117 -67 51 -32 203 -120 206 -120 2 0
49 -27 104 -60 55 -33 105 -60 110 -60 6 0 10 -4 10 -10 0 -5 4 -10 9 -10 9 0
42 -19 393 -224 119 -69 221 -126 225 -126 6 0 128 204 228 382 22 38 252 434
277 477 15 25 31 53 35 61 6 13 104 183 133 230 5 8 34 59 65 114 53 93 55 99
41 121 -9 13 -24 39 -34 57 -53 92 -209 348 -234 383 -103 143 -276 261 -428
290 -62 11 -233 14 -285 4z"/>
<path d="M5330 4173 c-129 -75 -260 -150 -291 -167 -31 -17 -209 -119 -397
-226 l-341 -195 29 -50 c15 -27 37 -66 48 -85 93 -165 704 -1216 711 -1223 5
-5 120 -9 269 -9 283 0 367 10 492 59 177 70 326 237 401 450 28 78 34 253 14
342 -14 59 -69 186 -112 256 -10 17 -37 64 -61 105 -23 41 -47 82 -52 90 -5 8
-26 44 -46 80 -21 36 -76 130 -122 210 -47 80 -95 163 -108 185 -81 145 -181
309 -189 311 -6 2 -116 -58 -245 -133z"/>
<path d="M1216 4003 c-1 -1 -161 -4 -356 -8 -519 -8 -844 -15 -847 -19 -2 -1
36 -25 85 -52 97 -54 116 -65 255 -143 l97 -54 -18 -31 c-181 -307 -404 -713
-417 -760 -19 -64 -16 -144 8 -212 7 -21 111 -208 232 -414 120 -206 229 -395
243 -420 14 -25 28 -49 32 -55 4 -5 83 -140 175 -300 92 -159 172 -294 178
-300 7 -7 8 -6 3 2 -9 17 -10 117 -2 173 22 139 76 277 171 440 73 123 167
286 203 350 14 25 33 57 43 72 11 14 19 28 19 31 0 2 55 98 121 213 67 115
156 268 198 341 l75 132 41 -22 c22 -12 42 -25 43 -29 2 -5 7 -8 12 -8 4 0 61
-31 126 -68 212 -122 239 -136 228 -121 -10 12 -34 55 -109 194 -37 68 -77
139 -95 170 -9 17 -31 55 -47 85 -17 30 -41 75 -55 100 -50 89 -232 416 -264
475 -18 33 -55 100 -83 150 l-50 90 -121 0 c-67 0 -122 -1 -124 -2z"/>
<path d="M4090 2542 c-8 -15 -19 -34 -26 -42 -6 -8 -23 -35 -36 -60 -14 -25
-169 -285 -346 -578 l-320 -533 57 -95 c31 -52 61 -102 66 -112 6 -9 71 -118
145 -242 74 -124 140 -233 145 -242 82 -144 329 -547 333 -544 2 3 4 115 4
250 l-1 246 415 1 c227 1 417 2 422 3 4 1 25 5 46 10 59 11 126 49 172 96 24
24 93 131 163 253 67 117 128 223 136 237 8 14 38 66 66 115 28 50 60 104 69
121 10 18 73 127 140 244 67 117 130 226 140 244 56 99 135 236 153 266 l21
34 -37 -22 c-88 -53 -106 -61 -172 -85 -131 -47 -181 -49 -960 -49 -401 0
-740 1 -752 1 -21 1 -21 1 -21 252 0 138 -2 252 -4 255 -3 2 -11 -8 -18 -24z"/>
<path d="M1313 1977 c-28 -50 -66 -119 -84 -152 -18 -33 -42 -76 -54 -95 -90
-143 -142 -338 -132 -493 18 -287 233 -549 512 -622 17 -5 37 -10 45 -13 28
-10 1343 -13 1349 -3 5 7 6 1429 2 1464 -1 4 -358 7 -793 7 l-793 0 -52 -93z"/>
</g>
</svg>
